<?xml version="1.0" encoding="UTF-8" standalone="no"?>
<!DOCTYPE svg PUBLIC "-//W3C//DTD SVG 1.1//EN" "http://www.w3.org/Graphics/SVG/1.1/DTD/svg11.dtd">
<svg width="100%" height="100%" viewBox="0 0 82 82" version="1.1" xmlns="http://www.w3.org/2000/svg" xmlns:xlink="http://www.w3.org/1999/xlink" xml:space="preserve" xmlns:serif="http://www.serif.com/" style="fill-rule:evenodd;clip-rule:evenodd;">
    <g transform="matrix(0.5,0,0,0.5,-9.65767,-142.088)">
        <path d="M75.5,290.36L125.5,290.36C152.929,290.36 175.5,312.931 175.5,340.36L175.5,390.36C175.5,417.789 152.929,440.36 125.5,440.36L75.5,440.36C48.071,440.36 25.5,417.789 25.5,390.36L25.5,340.36C25.5,312.931 48.071,290.36 75.5,290.36" style="fill:white;stroke:black;stroke-width:3px;"/>
    </g>
    <g transform="matrix(0.5,0,0,0.5,-140.158,-91.3377)">
        <path d="M337.5,227.36C337.5,234.217 331.857,239.86 325,239.86C318.143,239.86 312.5,234.217 312.5,227.36C312.5,220.503 318.143,214.86 325,214.86C331.857,214.86 337.5,220.503 337.5,227.36Z" style="stroke:black;stroke-width:3px;"/>
    </g>
    <g transform="matrix(0.5,0,0,0.5,-140.158,-55.3377)">
        <path d="M337.5,227.36C337.5,234.217 331.857,239.86 325,239.86C318.143,239.86 312.5,234.217 312.5,227.36C312.5,220.503 318.143,214.86 325,214.86C331.857,214.86 337.5,220.503 337.5,227.36Z" style="stroke:black;stroke-width:3px;"/>
    </g>
    <g transform="matrix(0.5,0,0,0.5,-140.158,-73.3377)">
        <path d="M337.5,227.36C337.5,234.217 331.857,239.86 325,239.86C318.143,239.86 312.5,234.217 312.5,227.36C312.5,220.503 318.143,214.86 325,214.86C331.857,214.86 337.5,220.503 337.5,227.36Z" style="stroke:black;stroke-width:3px;"/>
    </g>
    <g transform="matrix(0.5,0,0,0.5,-104.158,-91.3377)">
        <path d="M337.5,227.36C337.5,234.217 331.857,239.86 325,239.86C318.143,239.86 312.5,234.217 312.5,227.36C312.5,220.503 318.143,214.86 325,214.86C331.857,214.86 337.5,220.503 337.5,227.36Z" style="stroke:black;stroke-width:3px;"/>
    </g>
    <g transform="matrix(0.5,0,0,0.5,-104.158,-55.3377)">
        <path d="M337.5,227.36C337.5,234.217 331.857,239.86 325,239.86C318.143,239.86 312.5,234.217 312.5,227.36C312.5,220.503 318.143,214.86 325,214.86C331.857,214.86 337.5,220.503 337.5,227.36Z" style="stroke:black;stroke-width:3px;"/>
    </g>
    <g transform="matrix(0.5,0,0,0.5,-104.158,-73.3377)">
        <path d="M337.5,227.36C337.5,234.217 331.857,239.86 325,239.86C318.143,239.86 312.5,234.217 312.5,227.36C312.5,220.503 318.143,214.86 325,214.86C331.857,214.86 337.5,220.503 337.5,227.36Z" style="stroke:black;stroke-width:3px;"/>
    </g>
</svg>
