<?xml version="1.0" encoding="UTF-8" standalone="no"?>
<!DOCTYPE svg PUBLIC "-//W3C//DTD SVG 1.1//EN" "http://www.w3.org/Graphics/SVG/1.1/DTD/svg11.dtd">
<svg width="100%" height="100%" viewBox="0 0 82 82" version="1.1" xmlns="http://www.w3.org/2000/svg" xmlns:xlink="http://www.w3.org/1999/xlink" xml:space="preserve" xmlns:serif="http://www.serif.com/" style="fill-rule:evenodd;clip-rule:evenodd;">
    <g transform="matrix(0.5,0,0,0.5,-209.658,-129.588)">
        <path d="M475.5,265.36L525.5,265.36C552.929,265.36 575.5,287.931 575.5,315.36L575.5,365.36C575.5,392.789 552.929,415.36 525.5,415.36L475.5,415.36C448.071,415.36 425.5,392.789 425.5,365.36L425.5,315.36C425.5,287.931 448.071,265.36 475.5,265.36" style="fill:white;stroke:black;stroke-width:3px;"/>
    </g>
    <g transform="matrix(0.5,0,0,0.5,-140.158,-91.3377)">
        <path d="M337.5,227.36C337.5,234.217 331.857,239.86 325,239.86C318.143,239.86 312.5,234.217 312.5,227.36C312.5,220.503 318.143,214.86 325,214.86C331.857,214.86 337.5,220.503 337.5,227.36Z" style="stroke:black;stroke-width:3px;"/>
    </g>
    <g transform="matrix(0.5,0,0,0.5,-140.158,-55.3377)">
        <path d="M337.5,227.36C337.5,234.217 331.857,239.86 325,239.86C318.143,239.86 312.5,234.217 312.5,227.36C312.5,220.503 318.143,214.86 325,214.86C331.857,214.86 337.5,220.503 337.5,227.36Z" style="stroke:black;stroke-width:3px;"/>
    </g>
    <g transform="matrix(0.5,0,0,0.5,-104.158,-91.3377)">
        <path d="M337.5,227.36C337.5,234.217 331.857,239.86 325,239.86C318.143,239.86 312.5,234.217 312.5,227.36C312.5,220.503 318.143,214.86 325,214.86C331.857,214.86 337.5,220.503 337.5,227.36Z" style="stroke:black;stroke-width:3px;"/>
    </g>
    <g transform="matrix(0.5,0,0,0.5,-104.158,-55.3377)">
        <path d="M337.5,227.36C337.5,234.217 331.857,239.86 325,239.86C318.143,239.86 312.5,234.217 312.5,227.36C312.5,220.503 318.143,214.86 325,214.86C331.857,214.86 337.5,220.503 337.5,227.36Z" style="stroke:black;stroke-width:3px;"/>
    </g>
</svg>
