<?xml version="1.0" encoding="UTF-8" standalone="no"?>
<!DOCTYPE svg PUBLIC "-//W3C//DTD SVG 1.1//EN" "http://www.w3.org/Graphics/SVG/1.1/DTD/svg11.dtd">
<svg width="100%" height="100%" viewBox="0 0 82 82" version="1.1" xmlns="http://www.w3.org/2000/svg" xmlns:xlink="http://www.w3.org/1999/xlink" xml:space="preserve" xmlns:serif="http://www.serif.com/" style="fill-rule:evenodd;clip-rule:evenodd;">
    <g transform="matrix(0.5,0,0,0.5,-303.408,-17.0887)">
        <path d="M663,40.362L713,40.362C740.429,40.362 763,62.933 763,90.362L763,140.362C763,167.791 740.429,190.362 713,190.362L663,190.362C635.571,190.362 613,167.791 613,140.362L613,90.362C613,62.933 635.571,40.362 663,40.362" style="fill:white;stroke:black;stroke-width:3px;"/>
    </g>
    <g transform="matrix(0.5,0,0,0.5,-140.158,-91.3387)">
        <path d="M337.5,227.36C337.5,234.217 331.857,239.86 325,239.86C318.143,239.86 312.5,234.217 312.5,227.36C312.5,220.503 318.143,214.86 325,214.86C331.857,214.86 337.5,220.503 337.5,227.36Z" style="stroke:black;stroke-width:3px;"/>
    </g>
    <g transform="matrix(0.5,0,0,0.5,-104.158,-55.3387)">
        <path d="M337.5,227.36C337.5,234.217 331.857,239.86 325,239.86C318.143,239.86 312.5,234.217 312.5,227.36C312.5,220.503 318.143,214.86 325,214.86C331.857,214.86 337.5,220.503 337.5,227.36Z" style="stroke:black;stroke-width:3px;"/>
    </g>
</svg>
