<?xml version="1.0" encoding="UTF-8" standalone="no"?>
<!DOCTYPE svg PUBLIC "-//W3C//DTD SVG 1.1//EN" "http://www.w3.org/Graphics/SVG/1.1/DTD/svg11.dtd">
<svg width="100%" height="100%" viewBox="0 0 483 80" version="1.1" xmlns="http://www.w3.org/2000/svg" xmlns:xlink="http://www.w3.org/1999/xlink" xml:space="preserve" xmlns:serif="http://www.serif.com/" style="fill-rule:evenodd;clip-rule:evenodd;">
    <g transform="matrix(0.5,0,0,0.5,384.39,-143)">
        <path d="M75.5,290.36L125.5,290.36C152.929,290.36 175.5,312.931 175.5,340.36L175.5,390.36C175.5,417.789 152.929,440.36 125.5,440.36L75.5,440.36C48.071,440.36 25.5,417.789 25.5,390.36L25.5,340.36C25.5,312.931 48.071,290.36 75.5,290.36" style="fill:white;stroke:black;stroke-width:3px;"/>
        <g transform="matrix(1,0,0,1,-261,101.5)">
            <path d="M337.5,227.36C337.5,234.217 331.857,239.86 325,239.86C318.143,239.86 312.5,234.217 312.5,227.36C312.5,220.503 318.143,214.86 325,214.86C331.857,214.86 337.5,220.503 337.5,227.36Z" style="stroke:black;stroke-width:3px;"/>
        </g>
        <g transform="matrix(1,0,0,1,-261,173.5)">
            <path d="M337.5,227.36C337.5,234.217 331.857,239.86 325,239.86C318.143,239.86 312.5,234.217 312.5,227.36C312.5,220.503 318.143,214.86 325,214.86C331.857,214.86 337.5,220.503 337.5,227.36Z" style="stroke:black;stroke-width:3px;"/>
        </g>
        <g transform="matrix(1,0,0,1,-261,137.5)">
            <path d="M337.5,227.36C337.5,234.217 331.857,239.86 325,239.86C318.143,239.86 312.5,234.217 312.5,227.36C312.5,220.503 318.143,214.86 325,214.86C331.857,214.86 337.5,220.503 337.5,227.36Z" style="stroke:black;stroke-width:3px;"/>
        </g>
        <g transform="matrix(1,0,0,1,-189,101.5)">
            <path d="M337.5,227.36C337.5,234.217 331.857,239.86 325,239.86C318.143,239.86 312.5,234.217 312.5,227.36C312.5,220.503 318.143,214.86 325,214.86C331.857,214.86 337.5,220.503 337.5,227.36Z" style="stroke:black;stroke-width:3px;"/>
        </g>
        <g transform="matrix(1,0,0,1,-189,173.5)">
            <path d="M337.5,227.36C337.5,234.217 331.857,239.86 325,239.86C318.143,239.86 312.5,234.217 312.5,227.36C312.5,220.503 318.143,214.86 325,214.86C331.857,214.86 337.5,220.503 337.5,227.36Z" style="stroke:black;stroke-width:3px;"/>
        </g>
        <g transform="matrix(1,0,0,1,-189,137.5)">
            <path d="M337.5,227.36C337.5,234.217 331.857,239.86 325,239.86C318.143,239.86 312.5,234.217 312.5,227.36C312.5,220.503 318.143,214.86 325,214.86C331.857,214.86 337.5,220.503 337.5,227.36Z" style="stroke:black;stroke-width:3px;"/>
        </g>
    </g>
    <g transform="matrix(0.5,0,0,0.5,211.64,-136.747)">
        <path d="M263,277.86L313,277.86C340.429,277.86 363,300.431 363,327.86L363,377.86C363,405.289 340.429,427.86 313,427.86L263,427.86C235.571,427.86 213,405.289 213,377.86L213,327.86C213,300.431 235.571,277.86 263,277.86" style="fill:white;stroke:black;stroke-width:3px;"/>
        <g transform="matrix(1,0,0,1,-73.5,89)">
            <path d="M337.5,227.36C337.5,234.217 331.857,239.86 325,239.86C318.143,239.86 312.5,234.217 312.5,227.36C312.5,220.503 318.143,214.86 325,214.86C331.857,214.86 337.5,220.503 337.5,227.36Z" style="stroke:black;stroke-width:3px;"/>
        </g>
        <g transform="matrix(1,0,0,1,-73.5,161)">
            <path d="M337.5,227.36C337.5,234.217 331.857,239.86 325,239.86C318.143,239.86 312.5,234.217 312.5,227.36C312.5,220.503 318.143,214.86 325,214.86C331.857,214.86 337.5,220.503 337.5,227.36Z" style="stroke:black;stroke-width:3px;"/>
        </g>
        <g transform="matrix(1,0,0,1,-1.5,89)">
            <path d="M337.5,227.36C337.5,234.217 331.857,239.86 325,239.86C318.143,239.86 312.5,234.217 312.5,227.36C312.5,220.503 318.143,214.86 325,214.86C331.857,214.86 337.5,220.503 337.5,227.36Z" style="stroke:black;stroke-width:3px;"/>
        </g>
        <g transform="matrix(1,0,0,1,-1.5,161)">
            <path d="M337.5,227.36C337.5,234.217 331.857,239.86 325,239.86C318.143,239.86 312.5,234.217 312.5,227.36C312.5,220.503 318.143,214.86 325,214.86C331.857,214.86 337.5,220.503 337.5,227.36Z" style="stroke:black;stroke-width:3px;"/>
        </g>
        <g transform="matrix(1,0,0,1,-37.5,125)">
            <path d="M337.5,227.36C337.5,234.217 331.857,239.86 325,239.86C318.143,239.86 312.5,234.217 312.5,227.36C312.5,220.503 318.143,214.86 325,214.86C331.857,214.86 337.5,220.503 337.5,227.36Z" style="stroke:black;stroke-width:3px;"/>
        </g>
    </g>
    <g transform="matrix(0.5,0,0,0.5,26.393,-130.497)">
        <path d="M475.5,265.36L525.5,265.36C552.929,265.36 575.5,287.931 575.5,315.36L575.5,365.36C575.5,392.789 552.929,415.36 525.5,415.36L475.5,415.36C448.071,415.36 425.5,392.789 425.5,365.36L425.5,315.36C425.5,287.931 448.071,265.36 475.5,265.36" style="fill:white;stroke:black;stroke-width:3px;"/>
        <g transform="matrix(1,0,0,1,139,76.5)">
            <path d="M337.5,227.36C337.5,234.217 331.857,239.86 325,239.86C318.143,239.86 312.5,234.217 312.5,227.36C312.5,220.503 318.143,214.86 325,214.86C331.857,214.86 337.5,220.503 337.5,227.36Z" style="stroke:black;stroke-width:3px;"/>
        </g>
        <g transform="matrix(1,0,0,1,139,148.5)">
            <path d="M337.5,227.36C337.5,234.217 331.857,239.86 325,239.86C318.143,239.86 312.5,234.217 312.5,227.36C312.5,220.503 318.143,214.86 325,214.86C331.857,214.86 337.5,220.503 337.5,227.36Z" style="stroke:black;stroke-width:3px;"/>
        </g>
        <g transform="matrix(1,0,0,1,211,76.5)">
            <path d="M337.5,227.36C337.5,234.217 331.857,239.86 325,239.86C318.143,239.86 312.5,234.217 312.5,227.36C312.5,220.503 318.143,214.86 325,214.86C331.857,214.86 337.5,220.503 337.5,227.36Z" style="stroke:black;stroke-width:3px;"/>
        </g>
        <g transform="matrix(1,0,0,1,211,148.5)">
            <path d="M337.5,227.36C337.5,234.217 331.857,239.86 325,239.86C318.143,239.86 312.5,234.217 312.5,227.36C312.5,220.503 318.143,214.86 325,214.86C331.857,214.86 337.5,220.503 337.5,227.36Z" style="stroke:black;stroke-width:3px;"/>
        </g>
    </g>
    <g transform="matrix(0.5,0,0,0.5,-46.3572,0.753)">
        <path d="M463,2.862L513,2.862C540.429,2.862 563,25.433 563,52.862L563,102.862C563,130.291 540.429,152.862 513,152.862L463,152.862C435.571,152.862 413,130.291 413,102.862L413,52.862C413,25.433 435.571,2.862 463,2.862" style="fill:white;stroke:black;stroke-width:3px;"/>
        <g transform="matrix(1,0,0,1,126.5,-186)">
            <path d="M337.5,227.36C337.5,234.217 331.857,239.86 325,239.86C318.143,239.86 312.5,234.217 312.5,227.36C312.5,220.503 318.143,214.86 325,214.86C331.857,214.86 337.5,220.503 337.5,227.36Z" style="stroke:black;stroke-width:3px;"/>
        </g>
        <g transform="matrix(1,0,0,1,198.5,-114)">
            <path d="M337.5,227.36C337.5,234.217 331.857,239.86 325,239.86C318.143,239.86 312.5,234.217 312.5,227.36C312.5,220.503 318.143,214.86 325,214.86C331.857,214.86 337.5,220.503 337.5,227.36Z" style="stroke:black;stroke-width:3px;"/>
        </g>
        <g transform="matrix(1,0,0,1,162.5,-150)">
            <path d="M337.5,227.36C337.5,234.217 331.857,239.86 325,239.86C318.143,239.86 312.5,234.217 312.5,227.36C312.5,220.503 318.143,214.86 325,214.86C331.857,214.86 337.5,220.503 337.5,227.36Z" style="stroke:black;stroke-width:3px;"/>
        </g>
    </g>
    <g transform="matrix(0.5,0,0,0.5,-225.36,-17.997)">
        <path d="M663,40.362L713,40.362C740.429,40.362 763,62.933 763,90.362L763,140.362C763,167.791 740.429,190.362 713,190.362L663,190.362C635.571,190.362 613,167.791 613,140.362L613,90.362C613,62.933 635.571,40.362 663,40.362" style="fill:white;stroke:black;stroke-width:3px;"/>
        <g transform="matrix(1,0,0,1,326.5,-148.5)">
            <path d="M337.5,227.36C337.5,234.217 331.857,239.86 325,239.86C318.143,239.86 312.5,234.217 312.5,227.36C312.5,220.503 318.143,214.86 325,214.86C331.857,214.86 337.5,220.503 337.5,227.36Z" style="stroke:black;stroke-width:3px;"/>
        </g>
        <g transform="matrix(1,0,0,1,398.5,-76.5)">
            <path d="M337.5,227.36C337.5,234.217 331.857,239.86 325,239.86C318.143,239.86 312.5,234.217 312.5,227.36C312.5,220.503 318.143,214.86 325,214.86C331.857,214.86 337.5,220.503 337.5,227.36Z" style="stroke:black;stroke-width:3px;"/>
        </g>
    </g>
    <g transform="matrix(0.5,0,0,0.5,-291.86,-117.997)">
        <path d="M638,240.36L688,240.36C715.429,240.36 738,262.931 738,290.36L738,340.36C738,367.789 715.429,390.36 688,390.36L638,390.36C610.571,390.36 588,367.789 588,340.36L588,290.36C588,262.931 610.571,240.36 638,240.36" style="fill:white;stroke:black;stroke-width:3px;"/>
        <g transform="matrix(1,0,0,1,337.5,87.5)">
            <path d="M337.5,227.36C337.5,234.217 331.857,239.86 325,239.86C318.143,239.86 312.5,234.217 312.5,227.36C312.5,220.503 318.143,214.86 325,214.86C331.857,214.86 337.5,220.503 337.5,227.36Z" style="stroke:black;stroke-width:3px;"/>
        </g>
    </g>
</svg>
