<?xml version="1.0" encoding="UTF-8" standalone="no"?>
<!DOCTYPE svg PUBLIC "-//W3C//DTD SVG 1.1//EN" "http://www.w3.org/Graphics/SVG/1.1/DTD/svg11.dtd">
<svg width="100%" height="100%" viewBox="0 0 82 82" version="1.1" xmlns="http://www.w3.org/2000/svg" xmlns:xlink="http://www.w3.org/1999/xlink" xml:space="preserve" xmlns:serif="http://www.serif.com/" style="fill-rule:evenodd;clip-rule:evenodd;">
    <g transform="matrix(0.5,0,0,0.5,-203.408,1.66124)">
        <path d="M463,2.862L513,2.862C540.429,2.862 563,25.433 563,52.862L563,102.862C563,130.291 540.429,152.862 513,152.862L463,152.862C435.571,152.862 413,130.291 413,102.862L413,52.862C413,25.433 435.571,2.862 463,2.862" style="fill:white;stroke:black;stroke-width:3px;"/>
    </g>
    <g transform="matrix(0.5,0,0,0.5,-140.158,-91.3388)">
        <path d="M337.5,227.36C337.5,234.217 331.857,239.86 325,239.86C318.143,239.86 312.5,234.217 312.5,227.36C312.5,220.503 318.143,214.86 325,214.86C331.857,214.86 337.5,220.503 337.5,227.36Z" style="stroke:black;stroke-width:3px;"/>
    </g>
    <g transform="matrix(0.5,0,0,0.5,-104.158,-55.3388)">
        <path d="M337.5,227.36C337.5,234.217 331.857,239.86 325,239.86C318.143,239.86 312.5,234.217 312.5,227.36C312.5,220.503 318.143,214.86 325,214.86C331.857,214.86 337.5,220.503 337.5,227.36Z" style="stroke:black;stroke-width:3px;"/>
    </g>
    <g transform="matrix(0.5,0,0,0.5,-122.158,-73.3388)">
        <path d="M337.5,227.36C337.5,234.217 331.857,239.86 325,239.86C318.143,239.86 312.5,234.217 312.5,227.36C312.5,220.503 318.143,214.86 325,214.86C331.857,214.86 337.5,220.503 337.5,227.36Z" style="stroke:black;stroke-width:3px;"/>
    </g>
</svg>
